<?xml version="1.0" encoding="utf-8"?>
<!-- Generator: Adobe Illustrator 23.1.0, SVG Export Plug-In . SVG Version: 6.00 Build 0)  -->
<svg version="1.1" id="Capa_1" xmlns="http://www.w3.org/2000/svg" xmlns:xlink="http://www.w3.org/1999/xlink" x="0px" y="0px"
	 viewBox="0 0 1200 1200" enable-background="new 0 0 1200 1200" xml:space="preserve">
<g>
	<g>
		<path fill="#4F3117" d="M601.904,337.757c-2.325,0-4.599-0.27-6.721-0.769c-5.729-1.353-9.151-4.103-9.151-7.359
			c0-1.488,1.205-2.693,2.693-2.693c1.42,0,2.585,1.1,2.686,2.493c0.597,0.881,4.454,2.942,10.554,2.942c0.044,0,0.091,0,0.135,0
			c3.658-0.017,12.619-0.968,16.823-9.38c0.665-1.333,2.278-1.866,3.614-1.205c1.329,0.665,1.869,2.284,1.205,3.614
			C619.328,334.228,610.316,337.757,601.904,337.757z M591.417,329.629h0.034H591.417z"/>
	</g>
	<g>
		<g>
			<g>
				<path fill="#F58A43" d="M390.094,442.434c0,0,47.875-266.906,73.835-314.491c18.02-33.03,45.472-54.522,82.149-63.812
					c62.658-15.87,143.45-17.957,203.075,10.428c26.363,12.55,43.464,34.212,54.44,60.93
					c22.534,54.854,29.652,117.223,33.279,175.915c0.267,4.328,0.509,8.657,0.727,12.987c1.353,26.912,5.71,53.588,13.408,79.411
					l8.735,29.3c0,0-68.425,21.772-90.197,18.661c-21.772-3.11-18.661-43.543-18.661-43.543l-6.22,46.654
					c0,0-180.394,31.102-242.599-3.11c-32.929-18.111-27.992-37.323-27.992-37.323s0,31.102-24.882,31.102
					S390.094,442.434,390.094,442.434z"/>
				<path fill="#4F3117" d="M599.934,470.61c-38.951,0-76.492-4.015-99.169-16.486c-15.572-8.564-23.093-17.475-26.642-24.743
					c-3.475,9.664-10.868,18.855-24.932,18.855c-24.719,0-59-3.091-59.341-3.121c-0.752-0.067-1.441-0.449-1.9-1.049
					c-0.456-0.601-0.641-1.367-0.509-2.109c1.96-10.915,48.25-267.88,74.123-315.303c18.443-33.799,46.654-55.71,83.854-65.134
					c57.62-14.597,141.704-19.472,204.891,10.608c24.881,11.843,43.648,32.817,55.775,62.341
					c23.393,56.942,30.05,121.314,33.478,176.771c0.267,4.339,0.51,8.678,0.725,13.017c1.37,27.26,5.847,53.764,13.301,78.776
					l8.736,29.301c0.418,1.407-0.364,2.892-1.765,3.337c-2.821,0.894-69.288,21.898-91.395,18.76
					c-11.006-1.572-16.354-11.101-18.909-21.122l-2.922,21.918c-0.155,1.167-1.053,2.099-2.21,2.298
					C740.413,458.339,668.024,470.61,599.934,470.61z M476.528,418.76c0.482,5.969,4.471,18.345,26.835,30.647
					c57.246,31.477,219.241,6.343,238.896,3.135l5.955-44.674c0.192-1.448,1.535-2.47,2.949-2.325
					c1.451,0.152,2.517,1.431,2.406,2.885c-0.03,0.378-2.666,37.952,16.358,40.672c18.622,2.676,73.968-13.922,86.476-17.778
					l-7.976-26.75c-7.578-25.424-12.123-52.353-13.517-80.045c-0.216-4.319-0.459-8.638-0.725-12.957
					c-3.398-55.015-9.987-118.837-33.08-175.057c-11.769-28.643-29.139-48.112-53.109-59.52
					C686.102,47.527,603.45,52.372,546.74,66.743c-35.688,9.036-62.756,30.064-80.446,62.489
					c-24.01,44.012-67.732,281.67-73.026,310.772c8.81,0.742,35.648,2.848,55.923,2.848c17.211,0,21.075-16.881,21.939-24.638
					c-0.108-2.598,0.277-4.214,0.334-4.444c0.337-1.316,1.616-2.146,2.946-2.001c1.346,0.172,2.355,1.316,2.355,2.672
					C476.764,415.764,476.69,417.218,476.528,418.76z"/>
			</g>
			<g>
				<path fill="#E395BC" d="M370.475,536.588c-68.143,73.822-224.305,542.307-68.143,587.735l599.093,8.518
					c0,0,80.644-88.381,107.046-225.906s9.894-352.532-105.185-396.076C768.968,460.036,438.618,462.766,370.475,536.588z"/>
				<path fill="#4F3117" d="M901.423,1135.535c-0.013,0-0.027,0-0.037,0l-599.092-8.52c-0.243-0.003-0.483-0.041-0.715-0.108
					c-29.527-8.591-49.873-32.274-60.471-70.398c-24.014-86.385,7.092-220.564,27.773-292.858
					c29.055-101.572,70.948-197.833,99.618-228.888c31.261-33.87,122.282-56.476,243.478-60.471
					c113.044-3.735,227.748,9.64,292.261,34.052c66.612,25.201,95.137,103.522,107.335,164.786
					c14.195,71.279,14.026,158.871-0.456,234.31c-26.244,136.693-106.893,226.327-107.703,227.218
					C902.901,1135.218,902.179,1135.535,901.423,1135.535z M302.736,1121.637l597.489,8.496
					c8.419-9.647,81.054-95.836,105.6-223.705c25.542-133.056,10.311-349.986-103.492-393.05
					c-63.906-24.179-177.81-37.433-290.179-33.704c-119.785,3.948-209.392,25.91-239.702,58.74
					c-53.369,57.819-166.058,373.116-126.156,516.652C256.318,1091.118,275.308,1113.515,302.736,1121.637z"/>
			</g>
			<g>
				<path fill="#F58A43" d="M299.492,675.714c0,0-45.978-45.978-86.873-58.48"/>
				<path fill="#4F3117" d="M299.494,678.407c-0.688,0-1.377-0.263-1.903-0.79c-0.456-0.452-45.986-45.652-85.757-57.809
					c-1.424-0.435-2.224-1.94-1.788-3.361c0.435-1.424,1.947-2.227,3.361-1.788c41.067,12.552,86.095,57.252,87.991,59.152
					c1.053,1.049,1.053,2.757,0,3.806C300.874,678.143,300.182,678.407,299.494,678.407z"/>
			</g>
			<g>
				<path fill="#F58A43" d="M208.635,564.981c0,0,73.822,22.714,110.733,79.5"/>
				<path fill="#4F3117" d="M319.371,647.172c-0.881,0-1.744-0.432-2.261-1.225c-35.962-55.326-108.539-78.169-109.268-78.391
					c-1.421-0.439-2.217-1.944-1.782-3.367c0.439-1.42,1.944-2.224,3.367-1.781c0.746,0.229,75.183,23.663,112.197,80.605
					c0.81,1.248,0.459,2.915-0.79,3.725C320.383,647.031,319.873,647.172,319.371,647.172z"/>
			</g>
			<g>
				<path fill="#F58A43" d="M251.224,542.266c0,0,65.304,25.554,90.858,79.5"/>
				<path fill="#4F3117" d="M342.085,624.461c-1.009,0-1.977-0.567-2.436-1.539c-24.786-52.33-88.763-77.895-89.408-78.148
					c-1.383-0.543-2.068-2.105-1.525-3.489c0.54-1.387,2.099-2.075,3.489-1.525c2.706,1.06,66.595,26.565,92.31,80.855
					c0.638,1.346,0.064,2.952-1.279,3.587C342.861,624.38,342.47,624.461,342.085,624.461z"/>
			</g>
			<g>
				<path fill="#DDCEB1" d="M614.655,553.624l-153.322,5.679c0,0-2.839,116.411,116.411,141.965s170.358-119.251,144.804-156.162
					C720.263,541.804,614.655,553.624,614.655,553.624z"/>
				<path fill="#4F3117" d="M604.573,706.874c-8.938,0-18.089-0.982-27.391-2.976c-120.045-25.721-118.567-143.475-118.54-144.659
					c0.034-1.424,1.171-2.574,2.591-2.628l153.223-5.672c107.105-11.988,109.191-8.982,110.307-7.369
					c14.263,20.602,5.547,69.136-19.027,105.982C680.869,686.835,644.945,706.871,604.573,706.874z M464.06,561.898
					c0.54,16.975,8.314,114.036,114.248,136.737c67.162,14.377,105.857-26.447,122.947-52.07
					c25.559-38.323,30.644-81.853,19.54-99.24c-8.098-1.167-68.576,4.805-105.84,8.975c-0.068,0.007-0.135,0.013-0.199,0.017
					L464.06,561.898z M614.655,553.624h0.034H614.655z M721.318,547.433L721.318,547.433L721.318,547.433z"/>
			</g>
			<g>
				<g>
					<path fill="#DDCEB1" d="M654.777,890.081c0,7.056-25.424,21.295-56.786,21.295s-56.786-14.238-56.786-21.295
						s25.424-12.777,56.786-12.777S654.777,883.024,654.777,890.081z"/>
					<path fill="#4F3117" d="M597.99,914.067c-30.074,0-59.479-13.736-59.479-23.987c0-12.235,38.907-15.467,59.479-15.467
						c20.572,0,59.479,3.232,59.479,15.467C657.469,900.331,628.064,914.067,597.99,914.067z M597.99,879.998
						c-35.688,0-54.094,7.065-54.094,10.082c0,4.359,23.056,18.602,54.094,18.602s54.094-14.242,54.094-18.602
						C652.084,887.063,633.678,879.998,597.99,879.998z"/>
				</g>
				<g>
					<path fill="#DDCEB1" d="M607.244,675.763c0,0-15.226,156.065,29.847,210.31l-1.865,1.314
						c-22.613,15.928-52.983,15.189-74.794-1.819l0,0c0,0,33.62-35.944,18.853-199.242c-0.152-1.677-0.308-3.367-0.47-5.071
						L607.244,675.763z"/>
					<path fill="#4F3117" d="M599.036,901.63c-14.198,0-28.366-4.663-40.26-13.939c-0.59-0.459-0.962-1.151-1.022-1.9
						c-0.064-0.746,0.189-1.491,0.695-2.045c0.327-0.358,32.574-37.736,18.153-197.178l-0.469-5.058
						c-0.128-1.383,0.81-2.639,2.173-2.902l28.43-5.493c0.837-0.148,1.694,0.084,2.321,0.655c0.631,0.57,0.952,1.407,0.867,2.251
						c-0.148,1.552-14.6,155.575,29.237,208.329c0.479,0.577,0.695,1.329,0.597,2.072c-0.098,0.746-0.503,1.414-1.113,1.849
						l-1.862,1.316C625.361,897.628,612.185,901.63,599.036,901.63z M564.222,885.032c20.646,14.725,47.974,14.985,68.981,0.482
						c-39.906-52.161-30.978-182.527-28.96-206.43l-22.522,4.349l0.246,2.649C594.852,828.563,571.22,874.761,564.222,885.032z"/>
				</g>
			</g>
			<g>
				
					<ellipse transform="matrix(0.9986 -0.0526 0.0526 0.9986 -28.2765 31.8756)" fill="#DDCEB1" cx="591.496" cy="553.19" rx="130.608" ry="34.072"/>
				<path fill="#4F3117" d="M567.599,590.585c-55.923,0-108.128-9.707-109.221-30.384c-1.255-23.845,66.653-40.324,131.183-43.725
					c35.061-1.842,68.242-0.013,93.437,5.159c18.595,3.82,40.911,11.179,41.613,24.544l0,0
					c0.705,13.368-20.714,23.029-38.806,28.781c-24.51,7.791-57.316,13.098-92.377,14.944
					C584.844,590.355,576.18,590.585,567.599,590.585z M615.833,521.158c-8.472,0-17.168,0.229-25.988,0.695
					c-75.277,3.968-126.868,23.244-126.088,38.064c0.783,14.823,54.121,28.572,129.388,24.608
					c34.619-1.822,66.946-7.042,91.028-14.698c22.35-7.106,35.459-15.842,35.061-23.366l0,0
					c-0.395-7.524-14.347-14.833-37.321-19.55C663.465,523.122,640.606,521.158,615.833,521.158z"/>
			</g>
			<g>
				
					<ellipse transform="matrix(0.9986 -0.0526 0.0526 0.9986 -28.2824 31.8011)" fill="#4F3117" cx="590.078" cy="553.265" rx="117.831" ry="25.554"/>
			</g>
			<g>
				<path fill="#F58A43" d="M484.047,647.32c0,0,65.304,28.393,124.929,11.357"/>
				<path fill="#4F3117" d="M567.366,666.87c-44.448,0-82.332-16.182-84.394-17.08c-1.363-0.594-1.991-2.18-1.397-3.543
					c0.594-1.367,2.166-1.991,3.543-1.397c0.644,0.28,65.128,27.8,123.119,11.239c1.434-0.415,2.919,0.418,3.327,1.849
					c0.408,1.431-0.418,2.919-1.849,3.327C595.551,665.315,581.143,666.87,567.366,666.87z"/>
			</g>
			<g>
				<path fill="#F58A43" d="M486.886,675.714c0,0,56.786,25.554,105.054,8.518"/>
				<path fill="#4F3117" d="M554.933,692.834c-36.012,0-67.398-13.874-69.153-14.664c-1.353-0.611-1.96-2.203-1.35-3.56
					c0.611-1.356,2.2-1.971,3.56-1.353c0.56,0.253,56.389,24.904,103.053,8.432c1.414-0.493,2.942,0.246,3.438,1.643
					c0.493,1.404-0.243,2.942-1.643,3.438C580.337,691.181,567.36,692.834,554.933,692.834z"/>
			</g>
			<g>
				<path fill="#F58A43" d="M495.404,706.946c0,0,65.304,14.197,96.536,5.679"/>
				<path fill="#4F3117" d="M565.929,718.053c-31.633,0-69.048-8.03-71.1-8.476c-1.451-0.317-2.372-1.751-2.058-3.205
					c0.314-1.451,1.734-2.365,3.205-2.058c0.641,0.138,65.026,13.945,95.255,5.712c1.444-0.388,2.915,0.456,3.307,1.889
					c0.391,1.434-0.456,2.915-1.89,3.307C585.145,717.27,575.819,718.053,565.929,718.053z"/>
			</g>
			<g>
				<path fill="#7E6629" d="M648.727,1147.037c0,0-34.072-85.179,0-79.5c34.072,5.679,25.554,70.983,25.554,70.983
					s5.679-34.072,25.554-31.232c19.875,2.839,0,39.75,0,39.75"/>
				<path fill="#4F3117" d="M648.727,1149.73c-1.066,0-2.078-0.641-2.5-1.694c-2.531-6.323-24.334-62.263-11.067-78.746
					c2.183-2.709,6.38-5.679,14.009-4.41c23.865,3.978,28.498,33.633,28.781,54.192c4.359-8.368,11.371-16.014,22.266-14.451
					c4.434,0.634,7.727,2.848,9.522,6.401c5.901,11.691-6.141,34.706-7.531,37.291c-0.698,1.309-2.328,1.802-3.647,1.097
					c-1.309-0.705-1.802-2.338-1.097-3.647c3.411-6.343,11.405-24.516,7.464-32.314c-1.005-1.994-2.747-3.104-5.473-3.496
					c-17.036-2.389-22.465,28.7-22.519,29.014c-0.243,1.448-1.626,2.429-3.05,2.217c-1.454-0.216-2.463-1.555-2.274-3.01
					c0.081-0.628,7.794-62.796-23.325-67.982c-4.106-0.675-7.038,0.121-8.928,2.477c-9.579,11.897,5.321,56.996,11.87,73.371
					c0.553,1.38-0.118,2.946-1.501,3.499C649.399,1149.669,649.061,1149.73,648.727,1149.73z"/>
			</g>
			<g>
				<path fill="#7E6629" d="M495.404,1141.359c0,0-8.518-53.947,17.036-56.786c25.554-2.839,8.518,48.268,8.518,48.268"/>
				<path fill="#4F3117" d="M495.399,1144.051c-1.302,0-2.446-0.945-2.655-2.274c-0.236-1.488-5.625-36.663,6.364-52.377
					c3.351-4.39,7.737-6.917,13.034-7.504c5.557-0.611,9.883,0.931,12.845,4.599c9.812,12.137-0.29,43.644-1.475,47.197
					c-0.469,1.41-1.981,2.18-3.404,1.704c-1.41-0.469-2.173-1.994-1.704-3.405c2.956-8.881,9.151-33.758,2.392-42.113
					c-1.758-2.176-4.396-3.033-8.061-2.632c-3.83,0.425-6.887,2.2-9.346,5.422c-10.605,13.898-5.382,47.926-5.328,48.27
					c0.233,1.468-0.769,2.848-2.24,3.077C495.68,1144.041,495.538,1144.051,495.399,1144.051z"/>
			</g>
			<g>
				<g>
					<path fill="#DDCEB1" d="M566.387,251.238c0,32.936-13.032,59.625-29.103,59.625c-16.07,0-29.103-26.689-29.103-59.625
						c0-13.913,2.328-26.69,6.218-36.826c5.338-13.884,13.6-22.799,22.885-22.799c14.168,0,25.951,20.727,28.563,48.183
						C566.188,243.487,566.387,247.32,566.387,251.238z"/>
					<path fill="#4F3117" d="M537.283,313.554c-17.829,0-31.795-27.371-31.795-62.317c0-13.817,2.213-26.885,6.397-37.79
						c5.992-15.589,15.248-24.527,25.397-24.527c15.562,0,28.41,20.815,31.248,50.619c0.364,3.971,0.55,7.902,0.55,11.698
						C569.081,286.183,555.115,313.554,537.283,313.554z M537.283,194.305c-7.683,0-15.298,7.879-20.37,21.071
						c-3.951,10.295-6.04,22.694-6.04,35.86c0,30.86,12.093,56.932,26.409,56.932s26.413-26.072,26.413-56.932
						c0-3.631-0.179-7.396-0.53-11.195C560.686,213.973,549.558,194.305,537.283,194.305z"/>
				</g>
				<g>
					<path fill="#4F3117" d="M565.847,239.795c-5.338,13.884-13.6,22.8-22.885,22.8c-14.168,0-25.951-20.727-28.563-48.183
						c5.338-13.884,13.6-22.799,22.885-22.799C551.452,191.613,563.235,212.339,565.847,239.795z"/>
				</g>
			</g>
			<g>
				<g>
					<path fill="#DDCEB1" d="M705.513,251.238c0,32.936-13.032,59.625-29.103,59.625c-16.07,0-29.103-26.689-29.103-59.625
						c0-13.913,2.328-26.69,6.218-36.826c5.338-13.884,13.6-22.799,22.885-22.799c14.168,0,25.951,20.727,28.563,48.183
						C705.314,243.487,705.513,247.32,705.513,251.238z"/>
					<path fill="#4F3117" d="M676.409,313.554c-17.829,0-31.794-27.371-31.794-62.317c0-13.817,2.213-26.885,6.397-37.79
						c5.992-15.589,15.248-24.527,25.397-24.527c15.562,0,28.41,20.815,31.248,50.619c0.364,3.971,0.55,7.902,0.55,11.698
						C708.206,286.183,694.241,313.554,676.409,313.554z M676.409,194.305c-7.683,0-15.298,7.879-20.37,21.071
						c-3.951,10.295-6.04,22.694-6.04,35.86c0,30.86,12.093,56.932,26.409,56.932s26.413-26.072,26.413-56.932
						c0-3.631-0.179-7.396-0.53-11.195C699.812,213.973,688.684,194.305,676.409,194.305z"/>
				</g>
				<g>
					<path fill="#4F3117" d="M704.973,239.795c-5.338,13.884-13.6,22.8-22.885,22.8c-14.168,0-25.951-20.727-28.563-48.183
						c5.338-13.884,13.6-22.799,22.885-22.799C690.578,191.613,702.361,212.339,704.973,239.795z"/>
				</g>
			</g>
			<g>
				<path fill="#DB4D62" d="M735.332,103.416c43.543,18.661,41.225,93.646,41.225,93.646c-23.87-0.815-47.665-3.79-71-8.877
					c-6.618-1.443-13.744-3.4-17.802-8.823c-2.201-2.941-3.222-6.574-4.199-10.115c-2.083-7.547-4.165-15.094-6.248-22.641
					c-0.588,8.492-1.176,16.984-1.764,25.475c-0.159,2.298-0.387,4.77-1.886,6.518c-1.855,2.162-5.015,2.515-7.858,2.691
					c-22.368,1.383-44.831,1.223-67.177-0.479c-3.025-0.23-6.325-0.613-8.449-2.779c-1.619-1.651-2.227-4.045-2.446-6.347
					c-0.989-10.368,4.185-22.212-2.137-30.49c-2.791,1.1-3.195,4.785-3.451,7.773c-0.658,7.687-3.309,15.195-7.623,21.592
					c-1.797,2.664-3.952,5.2-6.795,6.699c-2.736,1.442-5.892,1.815-8.971,2.104c-31.671,2.971-63.929-0.463-94.265-10.034
					c0,0,12.696-62.802,56.24-78.353"/>
				<path fill="#4F3117" d="M776.556,199.755c-0.03,0-0.061,0-0.091,0c-23.98-0.817-48.028-3.826-71.481-8.938
					c-6.951-1.518-14.755-3.654-19.384-9.842c-2.534-3.381-3.654-7.437-4.639-11.013l-2.058-7.447l-0.675,9.751
					c-0.152,2.227-0.385,5.591-2.531,8.088c-2.517,2.939-6.343,3.411-9.731,3.627c-22.435,1.38-45.159,1.221-67.55-0.482
					c-2.693-0.209-7.2-0.557-10.166-3.58c-1.822-1.856-2.868-4.464-3.202-7.976c-0.375-3.911,0.057-7.912,0.472-11.783
					c0.55-5.085,1.073-9.95-0.304-13.986c-0.226,1.046-0.324,2.203-0.395,3.023c-0.698,8.165-3.489,16.074-8.071,22.867
					c-1.566,2.321-4.076,5.631-7.774,7.578c-3.138,1.653-6.509,2.078-9.977,2.402c-31.855,2.983-64.81-0.523-95.323-10.149
					c-1.313-0.415-2.102-1.751-1.829-3.101c0.53-2.625,13.51-64.473,57.974-80.355c1.397-0.486,2.939,0.229,3.442,1.633
					c0.499,1.4-0.229,2.939-1.633,3.442c-36.923,13.186-51.128,62.56-53.956,73.981c29.166,8.854,60.515,12.036,90.822,9.184
					c2.912-0.27,5.709-0.611,7.97-1.802c1.997-1.053,3.846-2.905,5.817-5.824c4.073-6.036,6.553-13.061,7.173-20.316
					c0.267-3.104,0.712-8.3,5.146-10.048c1.13-0.442,2.399-0.091,3.128,0.871c4.758,6.229,3.938,13.827,3.145,21.176
					c-0.388,3.604-0.79,7.329-0.466,10.693c0.213,2.234,0.763,3.776,1.687,4.717c1.431,1.461,4.11,1.778,6.731,1.981
					c22.141,1.687,44.609,1.849,66.805,0.476c2.284-0.142,4.825-0.408,5.979-1.755c0.908-1.059,1.1-2.868,1.245-4.953l1.765-25.475
					c0.091-1.309,1.11-2.362,2.416-2.493c1.286-0.135,2.517,0.695,2.865,1.964l6.249,22.64c0.904,3.266,1.839,6.647,3.762,9.218
					c3.519,4.704,10.217,6.495,16.22,7.804c22.232,4.849,45.008,7.777,67.743,8.712c-0.132-13.422-2.838-72.615-39.602-88.372
					c-1.37-0.587-2.001-2.17-1.417-3.536c0.587-1.37,2.18-2.004,3.536-1.417c44.717,19.165,42.953,93.069,42.858,96.207
					c-0.024,0.715-0.331,1.39-0.85,1.879C777.899,199.495,777.238,199.755,776.556,199.755z"/>
			</g>
			<g>
				<path fill="#DDCEB1" d="M791.316,806.333c0,0,208.387-37.323,245.71-3.11c0,0,46.654-292.363-223.938-317.245l-55.984-6.22
					c0,0,24.882,74.646-139.961,65.315c0,0-118.682-12.218-123.101-57.428c0,0-82.175,7.664-122.609,48.098
					s-102.638,161.733-118.189,251.93c0,0,195.946-9.331,242.599,55.984l-52.423,289.185l381.343,2.679L791.316,806.333z"/>
				<path fill="#4F3117" d="M824.763,1138.214c-0.007,0-0.013,0-0.02,0l-381.342-2.679c-0.793-0.007-1.545-0.361-2.051-0.975
					c-0.509-0.611-0.719-1.417-0.577-2.197l52.215-288.054c-46.469-62.395-237.684-54.05-239.615-53.949
					c-0.8,0.074-1.606-0.294-2.146-0.904c-0.54-0.614-0.776-1.437-0.638-2.244c15.518-89.988,77.754-212.193,118.942-253.374
					c40.652-40.652,120.868-48.561,124.263-48.878c1.464-0.125,2.784,0.945,2.929,2.419c4.157,42.528,119.529,54.894,120.696,55.012
					c85.342,4.828,117.987-13.26,130.309-29.281c12.106-15.74,7.042-31.832,6.819-32.51c-0.283-0.871-0.108-1.829,0.469-2.537
					c0.577-0.712,1.464-1.083,2.385-0.982l55.984,6.219c76.559,7.038,135.229,36.137,174.335,86.479
					c73.222,94.263,52.188,232.482,51.965,233.868c-0.155,0.979-0.837,1.792-1.771,2.119c-0.945,0.327-1.981,0.108-2.706-0.56
					c-33.795-30.968-217.473-0.678-240.961,3.351l33.195,326.691c0.078,0.763-0.172,1.518-0.688,2.085
					C826.244,1137.894,825.522,1138.214,824.763,1138.214z M446.643,1130.174l375.137,2.635l-33.144-326.202
					c-0.142-1.4,0.82-2.676,2.203-2.925c8.304-1.485,198.116-35.034,244.122-5.409c2.902-24.439,12.869-142.358-51.513-225.214
					c-38.155-49.104-95.556-77.501-170.607-84.401l-52.262-5.807c1.107,6.526,1.68,20.12-8.5,33.438
					c-19.027,24.878-64.476,35.459-135.09,31.471c-4.96-0.51-116.56-12.511-125.235-57.151
					c-14.077,1.707-83.088,11.708-118.419,47.036c-40.139,40.139-100.58,158.483-116.853,247.2
					c27.061-0.968,197.411-4.545,241.548,57.246c0.425,0.594,0.59,1.329,0.459,2.045L446.643,1130.174z"/>
			</g>
			<g>
				<path fill="#E395BC" d="M316.528,1002.233c17.036-68.143,0-224.305-19.875-269.734c-19.875-45.429-48.268-45.429-79.5-76.661
					c-30.646-30.646,5.679-36.911,5.679-36.911l-19.875-19.875c-19.875-28.393,14.197-34.072,14.197-34.072
					c-2.839-31.232,42.59-22.714,42.59-22.714s2.839-22.714,51.107-5.679c48.268,17.036,113.572,122.09,113.572,122.09
					c2.839-73.822,17.036-70.983,17.036-70.983c34.072-11.357,25.554,124.929,25.554,124.929s17.036,68.143,17.036,70.983
					c0,0,108.58,352.943-102.215,363.431C171.037,1157.526,250.87,862.34,250.87,862.34"/>
				<path fill="#4F3117" d="M371.123,1150c-44.819,0.003-79.265-14.576-102.5-43.415c-64.099-79.559-22.171-238.231-20.353-244.946
					c0.388-1.437,1.89-2.284,3.3-1.896c1.437,0.388,2.284,1.866,1.896,3.3c-0.435,1.62-43.024,162.755,19.357,240.168
					c23.929,29.699,60.525,43.547,108.873,41.137c42.305-2.105,74.552-18.578,95.849-48.959
					c68.414-97.604,4.579-308.869,3.924-310.991c-0.078-0.256-0.118-0.523-0.118-0.793c-0.273-2.902-10.288-43.665-16.952-70.327
					c-0.068-0.27-0.094-0.547-0.078-0.823c1.825-29.21,2.817-107.902-14.276-121.047c-2.315-1.778-4.774-2.143-7.74-1.157
					c-0.337,0.115-0.705,0.148-1.053,0.132c-0.759,0.196-11.671,4.181-14.141,68.401c-0.047,1.181-0.86,2.197-2.004,2.497
					c-1.144,0.304-2.352-0.172-2.976-1.181c-0.648-1.043-65.357-104.443-112.18-120.97c-24.834-8.766-36.68-6.623-42.251-3.286
					c-4.636,2.78-5.267,6.63-5.291,6.792c-0.111,0.722-0.513,1.387-1.107,1.809c-0.597,0.422-1.343,0.594-2.058,0.472
					c-0.243-0.051-24.169-4.38-34.676,5.196c-3.772,3.432-5.321,8.216-4.737,14.627c0.128,1.4-0.85,2.662-2.237,2.898
					c-0.135,0.024-13.719,2.419-17.303,10.986c-2.055,4.913-0.462,11.202,4.734,18.696l19.705,19.705
					c0.712,0.709,0.965,1.755,0.661,2.713c-0.3,0.958-1.113,1.67-2.102,1.842c-0.128,0.024-12.852,2.342-15.319,10.153
					c-1.744,5.53,2.085,13.206,11.081,22.202c11.216,11.216,21.983,18.281,32.392,25.117c17.866,11.729,34.74,22.806,47.673,52.37
					c19.56,44.704,37.473,201.659,20.022,271.466c-0.358,1.441-1.829,2.328-3.266,1.957c-1.441-0.361-2.318-1.822-1.957-3.266
					c17.235-68.937-0.429-223.884-19.732-267.998c-12.292-28.1-27.773-38.263-45.696-50.028
					c-10.635-6.984-21.638-14.205-33.242-25.812c-10.669-10.666-14.839-19.968-12.403-27.648
					c2.288-7.207,9.765-10.871,14.782-12.562l-16.574-16.574c-0.111-0.111-0.213-0.229-0.304-0.358
					c-6.438-9.198-8.26-17.299-5.415-24.074c3.705-8.827,14.236-12.457,19.003-13.679c-0.138-6.984,2.082-12.602,6.613-16.726
					c10.44-9.485,30.067-7.798,36.896-6.877c0.908-2.22,2.838-5.395,6.86-7.882c9.512-5.881,25.333-4.967,47.042,2.686
					c41.725,14.728,94.564,91.804,110.375,116.043c1.937-35.395,7.042-57.249,14.86-63.41c1.694-1.333,3.162-1.653,4.093-1.687
					c4.447-1.343,8.678-0.607,12.258,2.146c22.357,17.198,16.894,116.843,16.392,125.235c4.973,19.901,16,64.311,16.948,70.614
					c3.378,11.044,64.794,216.313-4.714,315.485c-22.3,31.818-55.943,49.063-99.993,51.253
					C378.29,1149.909,374.673,1150,371.123,1150z M441.295,590.372L441.295,590.372L441.295,590.372z M440.971,590.345
					c0,0,0,0,0.003,0C440.971,590.345,440.971,590.345,440.971,590.345z M440.927,590.338c0.013,0,0.027,0.003,0.04,0.007
					C440.954,590.342,440.941,590.338,440.927,590.338z"/>
			</g>
			<g>
				<path fill="#4F3117" d="M299.494,678.407c-0.688,0-1.377-0.263-1.903-0.79c-0.456-0.452-45.986-45.652-85.757-57.809
					c-1.424-0.435-2.224-1.94-1.788-3.361c0.435-1.424,1.947-2.227,3.361-1.788c41.067,12.552,86.095,57.252,87.991,59.152
					c1.053,1.049,1.053,2.757,0,3.806C300.874,678.143,300.182,678.407,299.494,678.407z"/>
			</g>
			<g>
				<path fill="#4F3117" d="M319.371,647.172c-0.881,0-1.744-0.432-2.261-1.225c-35.962-55.326-108.539-78.169-109.268-78.391
					c-1.421-0.439-2.217-1.944-1.782-3.367c0.439-1.42,1.944-2.224,3.367-1.781c0.746,0.229,75.183,23.663,112.197,80.605
					c0.81,1.248,0.459,2.915-0.79,3.725C320.383,647.031,319.873,647.172,319.371,647.172z"/>
			</g>
			<g>
				<path fill="#4F3117" d="M342.085,624.461c-1.009,0-1.977-0.567-2.436-1.539c-24.786-52.33-88.763-77.895-89.408-78.148
					c-1.383-0.543-2.068-2.105-1.525-3.489c0.54-1.387,2.099-2.075,3.489-1.525c2.706,1.06,66.595,26.565,92.31,80.855
					c0.638,1.346,0.064,2.952-1.279,3.587C342.861,624.38,342.47,624.461,342.085,624.461z"/>
			</g>
			<g>
				<path fill="#DDCEB1" d="M614.655,553.624l-153.322,5.679c0,0-2.839,116.411,116.411,141.965s170.358-119.251,144.804-156.162
					C720.263,541.804,614.655,553.624,614.655,553.624z"/>
				<path fill="#4F3117" d="M604.573,706.874c-8.938,0-18.089-0.982-27.391-2.976c-120.045-25.721-118.567-143.475-118.54-144.659
					c0.034-1.424,1.171-2.574,2.591-2.628l153.223-5.672c107.105-11.988,109.191-8.982,110.307-7.369
					c14.263,20.602,5.547,69.136-19.027,105.982C680.869,686.835,644.945,706.871,604.573,706.874z M464.06,561.898
					c0.54,16.975,8.314,114.036,114.248,136.737c67.162,14.377,105.857-26.447,122.947-52.07
					c25.559-38.323,30.644-81.853,19.54-99.24c-8.098-1.167-68.576,4.805-105.84,8.975c-0.068,0.007-0.135,0.013-0.199,0.017
					L464.06,561.898z M614.655,553.624h0.034H614.655z M721.318,547.433L721.318,547.433L721.318,547.433z"/>
			</g>
			<g>
				<g>
					<path fill="#DDCEB1" d="M654.777,890.081c0,7.056-25.424,21.295-56.786,21.295s-56.786-14.238-56.786-21.295
						s25.424-12.777,56.786-12.777S654.777,883.024,654.777,890.081z"/>
					<path fill="#4F3117" d="M597.99,914.067c-30.074,0-59.479-13.736-59.479-23.987c0-12.235,38.907-15.467,59.479-15.467
						c20.572,0,59.479,3.232,59.479,15.467C657.469,900.331,628.064,914.067,597.99,914.067z M597.99,879.998
						c-35.688,0-54.094,7.065-54.094,10.082c0,4.359,23.056,18.602,54.094,18.602s54.094-14.242,54.094-18.602
						C652.084,887.063,633.678,879.998,597.99,879.998z"/>
				</g>
				<g>
					<path fill="#DDCEB1" d="M607.244,675.763c0,0-15.226,156.065,29.847,210.31l-1.865,1.314
						c-22.613,15.928-52.983,15.189-74.794-1.819l0,0c0,0,33.62-35.944,18.853-199.242c-0.152-1.677-0.308-3.367-0.47-5.071
						L607.244,675.763z"/>
					<path fill="#4F3117" d="M599.036,901.63c-14.198,0-28.366-4.663-40.26-13.939c-0.59-0.459-0.962-1.151-1.022-1.9
						c-0.064-0.746,0.189-1.491,0.695-2.045c0.327-0.358,32.574-37.736,18.153-197.178l-0.469-5.058
						c-0.128-1.383,0.81-2.639,2.173-2.902l28.43-5.493c0.837-0.148,1.694,0.084,2.321,0.655c0.631,0.57,0.952,1.407,0.867,2.251
						c-0.148,1.552-14.6,155.575,29.237,208.329c0.479,0.577,0.695,1.329,0.597,2.072c-0.098,0.746-0.503,1.414-1.113,1.849
						l-1.862,1.316C625.361,897.628,612.185,901.63,599.036,901.63z M564.222,885.032c20.646,14.725,47.974,14.985,68.981,0.482
						c-39.906-52.161-30.978-182.527-28.96-206.43l-22.522,4.349l0.246,2.649C594.852,828.563,571.22,874.761,564.222,885.032z"/>
				</g>
			</g>
			<g>
				<path fill="#E395BC" d="M1018.364,793.892c7.379,128.424,16.872,293.77-60.154,333.271
					c-89.288,45.789-229.983,5.679-244.479-142.552c-10.834-110.785-97.904-239.362-97.904-239.362
					c-56.11,14.328-91.18-3.727-111.476-11.188c-20.296-7.461-9.999-27.906-9.999-27.906c-23.28-10.147-7.313-30.89-7.313-30.89
					c-23.43-12.982-4.329-28.204-4.329-28.204s-8.506,0.448-9.551-19.4s10.445-17.61,10.445-17.61
					c66.707,24.919,196.387,3.873,196.387,3.873s42.232-7.911,46.559-33.728s-1.643-31.189-1.643-31.189s-3.731-16.863,16.564-9.402
					c20.296,7.461,28.206,49.693,12.837,81.778c0,0,27.613,146.394,88.8,228.468s58.352,82.224,58.352,82.224"/>
				<path fill="#4F3117" d="M882.069,1147.628c-29.075,0.003-58.305-6.968-83.709-20.835c-50.022-27.31-81.03-77.713-87.309-141.92
					c-10.004-102.321-86.553-221.563-96.413-236.551c-50.012,12.238-83.955-1.093-104.342-9.09c-2.46-0.965-4.747-1.863-6.873-2.645
					c-6.539-2.402-10.919-6.313-13.014-11.624c-2.645-6.698-0.85-13.797,0.479-17.478c-6.134-3.205-9.937-7.538-11.317-12.899
					c-1.913-7.433,1.468-14.735,3.671-18.45c-6.526-4.181-10.058-9.053-10.517-14.509c-0.479-5.743,2.645-10.629,5.203-13.601
					c-0.509-0.368-1.033-0.82-1.552-1.363c-3.452-3.624-5.439-9.971-5.905-18.861c-0.452-8.553,1.259-14.576,5.085-17.9
					c3.087-2.682,6.826-2.844,8.564-2.494c0.145,0.027,0.287,0.068,0.425,0.118c65.283,24.388,193.719,3.944,195.015,3.739
					c0.337-0.064,40.372-7.862,44.336-31.514c3.884-23.187-0.844-28.788-0.894-28.842c-0.415-0.375-0.601-0.769-0.722-1.319
					c-0.074-0.324-1.704-7.983,3.081-12.164c3.533-3.084,9.269-3.205,17.039-0.348c7.426,2.73,13.513,9.491,17.603,19.56
					c7.666,18.872,6.492,44.91-2.885,65.097c2.396,12.12,30.445,149.107,88.149,226.506c60.461,81.097,59.496,83.152,58.646,84.964
					c-0.425,0.901-1.319,1.508-2.311,1.559c-1.339,0.125-2.608-0.941-2.807-2.298c-0.864-1.91-7.501-13.476-57.846-81.006
					c-60.853-81.627-89.01-228.105-89.286-229.576c-0.108-0.563-0.03-1.147,0.216-1.663c9.11-19.01,10.369-43.749,3.135-61.554
					c-3.452-8.499-8.591-14.37-14.468-16.533c-5.611-2.058-9.745-2.298-11.631-0.658c-1.734,1.501-1.704,4.677-1.478,6.35
					c1.852,2.494,5.507,10.517,1.771,32.817c-4.585,27.361-46.921,35.594-48.719,35.928c-5.385,0.874-130.873,20.822-197.546-3.89
					c-0.53-0.054-2.332-0.081-3.917,1.346c-1.694,1.518-3.617,5.092-3.175,13.493c0.86,16.395,6.775,16.847,6.836,16.85
					c1.117,0.051,2.159,0.79,2.507,1.856c0.351,1.063,0.074,2.237-0.8,2.939c-0.067,0.054-6.853,5.594-6.296,12.039
					c0.361,4.201,3.809,8.142,10.247,11.708c0.685,0.378,1.167,1.039,1.329,1.805c0.159,0.766-0.024,1.566-0.499,2.19
					c-0.064,0.084-6.414,8.526-4.383,16.361c1.124,4.329,4.704,7.835,10.639,10.419c0.675,0.297,1.201,0.857,1.454,1.552
					c0.25,0.695,0.206,1.464-0.121,2.122c-0.044,0.084-4.17,8.516-1.333,15.653c1.512,3.806,4.825,6.674,9.849,8.52
					c2.159,0.793,4.488,1.707,6.984,2.686c21.325,8.375,53.544,21.024,102.901,8.422c1.083-0.28,2.257,0.159,2.895,1.1
					c0.874,1.289,87.579,130.417,98.349,240.607c6.104,62.381,36.124,111.289,84.532,137.719
					c47.461,25.913,108.705,26.976,156.04,2.703c75.473-38.705,66.17-200.62,58.693-330.72c-0.084-1.485,1.049-2.757,2.534-2.844
					c1.478-0.108,2.757,1.049,2.844,2.534c7.565,131.662,16.979,295.517-61.615,335.821
					C935.914,1141.625,909.059,1147.628,882.069,1147.628z"/>
			</g>
			<g>
				
					<ellipse transform="matrix(0.9986 -0.0526 0.0526 0.9986 -28.2765 31.8756)" fill="#DDCEB1" cx="591.496" cy="553.19" rx="130.608" ry="34.072"/>
				<path fill="#4F3117" d="M567.599,590.585c-55.923,0-108.128-9.707-109.221-30.384c-1.255-23.845,66.653-40.324,131.183-43.725
					c35.061-1.842,68.242-0.013,93.437,5.159c18.595,3.82,40.911,11.179,41.613,24.544l0,0
					c0.705,13.368-20.714,23.029-38.806,28.781c-24.51,7.791-57.316,13.098-92.377,14.944
					C584.844,590.355,576.18,590.585,567.599,590.585z M615.833,521.158c-8.472,0-17.168,0.229-25.988,0.695
					c-75.277,3.968-126.868,23.244-126.088,38.064c0.783,14.823,54.121,28.572,129.388,24.608
					c34.619-1.822,66.946-7.042,91.028-14.698c22.35-7.106,35.459-15.842,35.061-23.366l0,0
					c-0.395-7.524-14.347-14.833-37.321-19.55C663.465,523.122,640.606,521.158,615.833,521.158z"/>
			</g>
			<g>
				
					<ellipse transform="matrix(0.9986 -0.0526 0.0526 0.9986 -28.2824 31.8011)" fill="#4F3117" cx="590.078" cy="553.265" rx="117.831" ry="25.554"/>
			</g>
			<g>
				<path fill="#4F3117" d="M567.366,666.87c-44.448,0-82.332-16.182-84.394-17.08c-1.363-0.594-1.991-2.18-1.397-3.543
					c0.594-1.367,2.166-1.991,3.543-1.397c0.644,0.28,65.128,27.8,123.119,11.239c1.434-0.415,2.919,0.418,3.327,1.849
					c0.408,1.431-0.418,2.919-1.849,3.327C595.551,665.315,581.143,666.87,567.366,666.87z"/>
			</g>
			<g>
				<path fill="#4F3117" d="M554.933,692.834c-36.012,0-67.398-13.874-69.153-14.664c-1.353-0.611-1.96-2.203-1.35-3.56
					c0.611-1.356,2.2-1.971,3.56-1.353c0.56,0.253,56.389,24.904,103.053,8.432c1.414-0.493,2.942,0.246,3.438,1.643
					c0.493,1.404-0.243,2.942-1.643,3.438C580.337,691.181,567.36,692.834,554.933,692.834z"/>
			</g>
			<g>
				<path fill="#4F3117" d="M565.929,718.053c-31.633,0-69.048-8.03-71.1-8.476c-1.451-0.317-2.372-1.751-2.058-3.205
					c0.314-1.451,1.734-2.365,3.205-2.058c0.641,0.138,65.026,13.945,95.255,5.712c1.444-0.388,2.915,0.456,3.307,1.889
					c0.391,1.434-0.456,2.915-1.89,3.307C585.145,717.27,575.819,718.053,565.929,718.053z"/>
			</g>
			<g>
				<path fill="#7E6629" d="M648.727,1147.037c0,0-34.072-85.179,0-79.5c34.072,5.679,25.554,70.983,25.554,70.983
					s5.679-34.072,25.554-31.232c19.875,2.839,0,39.75,0,39.75"/>
				<path fill="#4F3117" d="M648.727,1149.73c-1.066,0-2.078-0.641-2.5-1.694c-2.531-6.323-24.334-62.263-11.067-78.746
					c2.183-2.709,6.38-5.679,14.009-4.41c23.865,3.978,28.498,33.633,28.781,54.192c4.359-8.368,11.371-16.014,22.266-14.451
					c4.434,0.634,7.727,2.848,9.522,6.401c5.901,11.691-6.141,34.706-7.531,37.291c-0.698,1.309-2.328,1.802-3.647,1.097
					c-1.309-0.705-1.802-2.338-1.097-3.647c3.411-6.343,11.405-24.516,7.464-32.314c-1.005-1.994-2.747-3.104-5.473-3.496
					c-17.036-2.389-22.465,28.7-22.519,29.014c-0.243,1.448-1.626,2.429-3.05,2.217c-1.454-0.216-2.463-1.555-2.274-3.01
					c0.081-0.628,7.794-62.796-23.325-67.982c-4.106-0.675-7.038,0.121-8.928,2.477c-9.579,11.897,5.321,56.996,11.87,73.371
					c0.553,1.38-0.118,2.946-1.501,3.499C649.399,1149.669,649.061,1149.73,648.727,1149.73z"/>
			</g>
			<g>
				<path fill="#7E6629" d="M495.404,1141.359c0,0-8.518-53.947,17.036-56.786c25.554-2.839,8.518,48.268,8.518,48.268"/>
				<path fill="#4F3117" d="M495.399,1144.051c-1.302,0-2.446-0.945-2.655-2.274c-0.236-1.488-5.625-36.663,6.364-52.377
					c3.351-4.39,7.737-6.917,13.034-7.504c5.557-0.611,9.883,0.931,12.845,4.599c9.812,12.137-0.29,43.644-1.475,47.197
					c-0.469,1.41-1.981,2.18-3.404,1.704c-1.41-0.469-2.173-1.994-1.704-3.405c2.956-8.881,9.151-33.758,2.392-42.113
					c-1.758-2.176-4.396-3.033-8.061-2.632c-3.83,0.425-6.887,2.2-9.346,5.422c-10.605,13.898-5.382,47.926-5.328,48.27
					c0.233,1.468-0.769,2.848-2.24,3.077C495.68,1144.041,495.538,1144.051,495.399,1144.051z"/>
			</g>
			<g>
				<path fill="#E395BC" d="M736.745,502.516c0,0-17.036-39.75-14.197-68.143s-184.555-5.679-184.555-5.679s0,53.947-17.036,70.983"
					/>
				<path fill="#4F3117" d="M736.745,505.209c-1.043,0-2.038-0.611-2.477-1.633c-0.705-1.647-17.276-40.719-14.397-69.47
					c0.074-0.763-0.003-1.798-1.292-3.064c-15.781-15.45-131.537-5.446-177.918,0.044c-0.219,10.885-2.078,54.776-17.799,70.493
					c-1.053,1.053-2.76,1.053-3.806,0c-1.053-1.049-1.053-2.757,0-3.806c16.061-16.061,16.246-68.549,16.246-69.079
					c0-1.363,1.016-2.51,2.369-2.672c16.712-2.028,163.875-19.202,184.673,1.174c2.163,2.116,3.162,4.69,2.885,7.443
					c-2.74,27.388,13.824,66.427,13.993,66.818c0.584,1.367-0.047,2.949-1.417,3.536
					C737.46,505.138,737.099,505.209,736.745,505.209z"/>
			</g>
			<g>
				<g>
					
						<ellipse transform="matrix(0.9469 -0.3215 0.3215 0.9469 -44.9878 268.2585)" fill="#E395BC" cx="789.879" cy="270.367" rx="48.268" ry="42.992"/>
					<path fill="#4F3117" d="M786.581,316.628c-20.329,0-38.688-11.401-44.96-29.878l0,0c-8.095-23.855,6.964-50.612,33.573-59.645
						c12.842-4.356,26.436-3.992,38.283,1.022c11.958,5.061,20.717,14.246,24.658,25.856c3.941,11.61,2.585,24.226-3.823,35.526
						c-6.347,11.195-16.915,19.759-29.746,24.118C798.569,315.663,792.489,316.628,786.581,316.628z M746.722,285.016
						c7.143,21.041,32.311,31.592,56.109,23.511c11.583-3.931,21.099-11.631,26.797-21.675c5.638-9.94,6.85-21.001,3.405-31.133
						c-3.442-10.139-11.131-18.176-21.655-22.63c-10.639-4.501-22.877-4.822-34.45-0.881
						C753.13,240.285,739.579,263.975,746.722,285.016L746.722,285.016z"/>
				</g>
				<g>
					
						<ellipse transform="matrix(0.9469 -0.3215 0.3215 0.9469 -44.77 266.0442)" fill="#4F3117" cx="783.282" cy="268.6" rx="31.232" ry="24.025"/>
				</g>
			</g>
			<g>
				<g>
					
						<ellipse transform="matrix(0.3215 -0.9469 0.9469 0.3215 47.8033 607.4438)" fill="#E395BC" cx="447.751" cy="270.367" rx="42.992" ry="48.268"/>
					<path fill="#4F3117" d="M451.05,316.625c-5.915,0-11.988-0.962-17.984-2.996c-12.835-4.359-23.4-12.923-29.75-24.118
						c-6.408-11.297-7.764-23.913-3.823-35.526c3.941-11.61,12.7-20.795,24.662-25.856c11.85-5.014,25.441-5.378,38.283-1.022
						c26.608,9.033,41.667,35.79,33.573,59.645l0,0C489.734,305.223,471.372,316.625,451.05,316.625z M444.366,229.467
						c-6.266,0-12.417,1.211-18.112,3.62c-10.527,4.454-18.217,12.491-21.659,22.63c-3.442,10.136-2.23,21.193,3.408,31.133
						c5.696,10.045,15.214,17.745,26.797,21.675c23.784,8.078,48.966-2.47,56.109-23.511c7.143-21.041-6.408-44.731-30.205-52.809
						C455.325,230.378,449.801,229.467,444.366,229.467z M493.459,285.883h0.034H493.459z"/>
				</g>
				<g>
					
						<ellipse transform="matrix(0.3215 -0.9469 0.9469 0.3215 53.9523 612.4915)" fill="#4F3117" cx="454.348" cy="268.6" rx="24.025" ry="31.232"/>
				</g>
			</g>
			<g>
				<path fill="#E395BC" d="M658.664,458.507c0,0-207.269,31.232-210.108-147.644s53.947-176.037,53.947-176.037
					s221.466-25.554,252.698,17.036c27.91,38.059,44.483,125.999,21.354,223.298c-7.258,30.533-26.771,57.139-54.713,71.428
					c-8.468,4.33-17.612,7.509-26.942,8.286"/>
				<path fill="#4F3117" d="M624.781,463.194c-35.729,0-91.925-6.127-131.568-39.703c-30.644-25.951-46.577-63.832-47.349-112.585
					c-1.731-108.914,18.551-151.732,35.87-168.471c10.136-9.795,18.953-10.301,20.629-10.305
					c11.314-1.296,223.392-24.969,255.011,18.139c28.299,38.593,44.873,128.45,21.797,225.514
					c-7.653,32.199-28.103,58.879-56.105,73.202c-9.677,4.95-19.081,7.835-27.945,8.57c-1.471,0.121-2.784-0.978-2.905-2.46
					c-0.125-1.481,0.979-2.784,2.46-2.905c8.162-0.682,16.888-3.371,25.94-8.003c26.595-13.601,46.027-38.988,53.318-69.652
					c22.694-95.471,6.664-183.486-20.906-221.08c-29.959-40.857-248.016-16.206-250.219-15.953c-0.145,0.013-0.29,0.024-0.442,0.013
					c0.02-0.013-7.875-0.105-17.235,9.13c-16.392,16.172-35.574,57.779-33.883,164.172c0.749,47.123,16.031,83.645,45.426,108.549
					c60.218,51.017,160.589,36.63,161.588,36.478c1.454-0.209,2.841,0.79,3.064,2.261c0.223,1.471-0.79,2.844-2.261,3.064
					C658.691,461.227,645.019,463.194,624.781,463.194z"/>
			</g>
			<g>
				<g>
					<path fill="#DDCEB1" d="M566.387,251.238c0,32.936-13.032,59.625-29.103,59.625c-16.07,0-29.103-26.689-29.103-59.625
						c0-13.913,2.328-26.69,6.218-36.826c5.338-13.884,13.6-22.799,22.885-22.799c14.168,0,25.951,20.727,28.563,48.183
						C566.188,243.487,566.387,247.32,566.387,251.238z"/>
					<path fill="#4F3117" d="M537.283,313.554c-17.829,0-31.795-27.371-31.795-62.317c0-13.817,2.213-26.885,6.397-37.79
						c5.992-15.589,15.248-24.527,25.397-24.527c15.562,0,28.41,20.815,31.248,50.619c0.364,3.971,0.55,7.902,0.55,11.698
						C569.081,286.183,555.115,313.554,537.283,313.554z M537.283,194.305c-7.683,0-15.298,7.879-20.37,21.071
						c-3.951,10.295-6.04,22.694-6.04,35.86c0,30.86,12.093,56.932,26.409,56.932s26.413-26.072,26.413-56.932
						c0-3.631-0.179-7.396-0.53-11.195C560.686,213.973,549.558,194.305,537.283,194.305z"/>
				</g>
				<g>
					<path fill="#4F3117" d="M565.847,239.795c-5.338,13.884-13.6,22.8-22.885,22.8c-14.168,0-25.951-20.727-28.563-48.183
						c5.338-13.884,13.6-22.799,22.885-22.799C551.452,191.613,563.235,212.339,565.847,239.795z"/>
				</g>
			</g>
			<g>
				<g>
					<path fill="#DDCEB1" d="M705.513,251.238c0,32.936-13.032,59.625-29.103,59.625c-16.07,0-29.103-26.689-29.103-59.625
						c0-13.913,2.328-26.69,6.218-36.826c5.338-13.884,13.6-22.799,22.885-22.799c14.168,0,25.951,20.727,28.563,48.183
						C705.314,243.487,705.513,247.32,705.513,251.238z"/>
					<path fill="#4F3117" d="M676.409,313.554c-17.829,0-31.794-27.371-31.794-62.317c0-13.817,2.213-26.885,6.397-37.79
						c5.992-15.589,15.248-24.527,25.397-24.527c15.562,0,28.41,20.815,31.248,50.619c0.364,3.971,0.55,7.902,0.55,11.698
						C708.206,286.183,694.241,313.554,676.409,313.554z M676.409,194.305c-7.683,0-15.298,7.879-20.37,21.071
						c-3.951,10.295-6.04,22.694-6.04,35.86c0,30.86,12.093,56.932,26.409,56.932s26.413-26.072,26.413-56.932
						c0-3.631-0.179-7.396-0.53-11.195C699.812,213.973,688.684,194.305,676.409,194.305z"/>
				</g>
				<g>
					<path fill="#4F3117" d="M704.973,239.795c-5.338,13.884-13.6,22.8-22.885,22.8c-14.168,0-25.951-20.727-28.563-48.183
						c5.338-13.884,13.6-22.799,22.885-22.799C690.578,191.613,702.361,212.339,704.973,239.795z"/>
				</g>
			</g>
			<g>
				<path fill="#F58A43" d="M730.018,93.237c43.543,18.661,46.539,103.825,46.539,103.825c-23.87-0.815-47.665-3.79-71-8.877
					c-6.618-1.443-13.744-3.4-17.802-8.823c-2.201-2.941-3.222-6.574-4.199-10.115c-2.083-7.547-4.165-15.094-6.248-22.641
					c-0.588,8.492-1.176,16.984-1.764,25.475c-0.159,2.298-0.387,4.77-1.886,6.518c-1.855,2.162-5.015,2.515-7.858,2.691
					c-22.368,1.383-44.831,1.223-67.177-0.479c-3.025-0.23-6.325-0.613-8.449-2.779c-1.619-1.651-2.227-4.045-2.446-6.347
					c-0.989-10.368,4.185-22.212-2.137-30.49c-2.791,1.1-3.195,4.785-3.451,7.773c-0.658,7.687-3.309,15.195-7.623,21.592
					c-1.797,2.664-3.952,5.2-6.795,6.699c-2.736,1.442-5.892,1.815-8.971,2.104c-31.671,2.971-63.929-0.463-94.265-10.034
					c0,0,20.919-68.692,64.463-84.243"/>
				<path fill="#4F3117" d="M776.556,199.755c-0.03,0-0.061,0-0.091,0c-23.98-0.817-48.028-3.826-71.481-8.938
					c-6.951-1.518-14.755-3.654-19.384-9.842c-2.534-3.381-3.654-7.437-4.639-11.013l-2.058-7.447l-0.675,9.751
					c-0.152,2.227-0.385,5.591-2.531,8.088c-2.517,2.939-6.343,3.411-9.731,3.627c-22.435,1.38-45.159,1.221-67.55-0.482
					c-2.693-0.209-7.2-0.557-10.166-3.58c-1.822-1.856-2.868-4.464-3.205-7.976c-0.371-3.911,0.061-7.912,0.476-11.783
					c0.55-5.085,1.073-9.95-0.304-13.986c-0.226,1.046-0.324,2.203-0.395,3.023c-0.698,8.165-3.489,16.074-8.071,22.867
					c-1.566,2.321-4.076,5.631-7.774,7.578c-3.138,1.653-6.509,2.078-9.977,2.402c-31.855,2.983-64.81-0.523-95.323-10.149
					c-1.41-0.445-2.197-1.94-1.765-3.354c0.867-2.855,21.821-70.165,66.133-85.993c1.393-0.493,2.939,0.229,3.442,1.633
					c0.499,1.4-0.229,2.939-1.633,3.442c-37.078,13.24-57.661,67.496-61.946,79.943c29.095,8.803,60.367,11.958,90.589,9.114
					c2.912-0.27,5.709-0.611,7.97-1.802c1.997-1.053,3.846-2.905,5.817-5.824c4.073-6.036,6.553-13.061,7.173-20.316
					c0.267-3.104,0.712-8.3,5.146-10.048c1.13-0.442,2.399-0.091,3.128,0.871c4.758,6.229,3.938,13.827,3.145,21.176
					c-0.388,3.604-0.79,7.329-0.466,10.693c0.213,2.234,0.763,3.776,1.687,4.717c1.431,1.461,4.11,1.778,6.731,1.981
					c22.141,1.687,44.609,1.849,66.805,0.476c2.284-0.142,4.825-0.408,5.979-1.755c0.908-1.059,1.1-2.868,1.245-4.953l1.765-25.475
					c0.091-1.309,1.11-2.362,2.416-2.493c1.286-0.135,2.517,0.695,2.865,1.964l6.249,22.64c0.904,3.266,1.839,6.647,3.762,9.218
					c3.519,4.704,10.217,6.495,16.22,7.804c22.175,4.835,44.89,7.761,67.567,8.705c-1.029-14.9-7.71-82.673-44.741-98.545
					c-1.37-0.587-2.001-2.17-1.417-3.536c0.587-1.37,2.18-2.004,3.536-1.417c44.603,19.118,48.048,102.662,48.173,106.208
					c0.024,0.746-0.26,1.468-0.786,1.997C777.957,199.471,777.268,199.755,776.556,199.755z"/>
			</g>
			<g>
				<g>
					<g>
						<path fill="#4F3117" d="M262.838,370.505c-22.116-9.755-47.504-7.363-71.417-3.84c-9.204,1.356-18.848,3.05-26.086,8.895
							s-10.853,17.246-5.245,24.669c4.136,5.474,11.6,7.04,18.426,7.725c24.827,2.489,50.257-1.589,73.143-11.528"/>
					</g>
					<g>
						<path fill="#4F3117" d="M251.942,415.486c-18.767,6.413-38.287,10.53-57.992,12.774c-5.716,0.651-11.755,1.098-16.989-1.289
							c-5.234-2.387-9.177-8.588-7.09-13.949c1.097-2.817,3.571-4.846,6.07-6.547c20.204-13.748,46.895-13.746,70.763-8.498"/>
					</g>
				</g>
				<g>
					<path fill="#DF8D26" d="M332.652,412.983c-6.665,10.771-16.744,21.031-29.513,29.179c-1.129,0.724-2.26,1.417-3.41,2.08
						c-5.272,3.088-10.643,5.611-15.985,7.588c-12.292,4.536-24.509,6.164-35.176,4.888c-12.516-1.479-22.91-6.906-28.869-16.26
						c-4.219-6.612-5.723-14.418-4.831-22.66c1.094-10.448,6.049-21.591,14.139-31.887c2.834-3.626,6.066-7.132,9.657-10.455
						c4.374-4.092,9.299-7.924,14.694-11.365c9.398-5.994,19.239-10.182,28.78-12.573c23.298-5.836,44.916-1.015,54.66,14.277
						C345.109,378.83,342.876,396.504,332.652,412.983z"/>
					<path fill="#4F3117" d="M255.839,459.837c-2.585,0-5.119-0.148-7.592-0.445c-13.723-1.62-24.668-7.828-30.819-17.485
						c-4.407-6.907-6.215-15.346-5.237-24.398c1.151-10.986,6.235-22.489,14.701-33.259c2.925-3.745,6.273-7.372,9.944-10.77
						c4.542-4.248,9.616-8.176,15.076-11.658c9.437-6.019,19.388-10.362,29.571-12.913c25.404-6.37,47.464-0.442,57.586,15.44
						c8.543,13.402,7.001,32.112-4.127,50.052l0,0c-7.133,11.529-17.63,21.912-30.357,30.033c-1.157,0.742-2.325,1.461-3.512,2.143
						c-5.257,3.081-10.78,5.702-16.395,7.781C274.862,457.978,265.037,459.837,255.839,459.837z M300.89,351.773
						c-5.682,0-11.769,0.773-18.099,2.359c-9.488,2.375-19.162,6.607-27.985,12.231c-5.179,3.303-9.991,7.025-14.303,11.06
						c-3.469,3.212-6.62,6.623-9.373,10.146c-7.841,9.977-12.538,20.525-13.584,30.509c-0.86,7.946,0.631,14.985,4.424,20.933
						c5.345,8.388,14.651,13.584,26.915,15.032c10.416,1.255,22.148-0.391,33.927-4.741c5.318-1.967,10.551-4.451,15.555-7.386
						c1.134-0.651,2.227-1.323,3.317-2.021c12.052-7.69,21.969-17.485,28.677-28.329c0,0,0.003,0,0.003-0.003
						c10.011-16.139,11.57-32.706,4.164-44.319C328.113,357.178,315.915,351.773,300.89,351.773z"/>
				</g>
				<g>
					<path fill="#4F3117" d="M303.141,454.664c-1.35,0-2.517-1.012-2.672-2.389c-0.415-3.654-1.302-7.248-2.635-10.679
						c-0.54-1.387,0.148-2.946,1.535-3.485c1.39-0.543,2.946,0.148,3.485,1.535c1.498,3.863,2.497,7.906,2.966,12.022
						c0.169,1.478-0.894,2.811-2.372,2.979C303.347,454.657,303.242,454.664,303.141,454.664z"/>
				</g>
				<g>
					<path fill="#4F3117" d="M323.2,438.526c-0.061,0-0.121,0-0.182-0.007c-1.485-0.098-2.608-1.38-2.507-2.865
						c0.196-2.993-0.607-6.013-2.264-8.506c-0.827-1.238-0.489-2.909,0.749-3.732c1.238-0.827,2.912-0.489,3.732,0.749
						c2.311,3.472,3.431,7.68,3.155,11.847C325.788,437.436,324.604,438.526,323.2,438.526z"/>
				</g>
				<g>
					<path fill="#4F3117" d="M320.558,355.265c-0.219,0-0.439-0.027-0.658-0.081c-1.441-0.361-2.318-1.822-1.957-3.266
						c3.28-13.092-2.045-27.8-12.943-35.763c-2.797-2.041-5.874-3.651-9.134-5.351c-3.421-1.785-6.957-3.634-10.176-6.043
						c-1.191-0.891-1.434-2.578-0.543-3.769c0.894-1.191,2.581-1.431,3.769-0.543c2.875,2.149,6.063,3.816,9.444,5.581
						c3.29,1.721,6.694,3.496,9.819,5.78c12.623,9.222,18.787,26.251,14.988,41.418
						C322.859,354.449,321.763,355.265,320.558,355.265z"/>
				</g>
				<g>
					<path fill="#4F3117" d="M331.42,360.559c-0.472,0-0.955-0.125-1.39-0.388c-1.272-0.769-1.68-2.426-0.911-3.698
						c4.889-8.078,6.377-18.396,4.083-28.306c-2.122-9.184-7.511-18.095-15.17-25.093c-2.2-2.004-4.626-3.904-6.974-5.739
						c-2.976-2.328-6.053-4.734-8.844-7.48c-1.059-1.046-1.073-2.75-0.03-3.809c1.053-1.059,2.757-1.07,3.809-0.03
						c2.571,2.534,5.395,4.741,8.381,7.076c2.429,1.9,4.94,3.863,7.288,6.009c8.459,7.727,14.421,17.62,16.79,27.854
						c2.605,11.266,0.884,23.042-4.724,32.307C333.221,360.097,332.331,360.559,331.42,360.559z"/>
				</g>
				<g>
					<g>
						<path fill="#DDCEB1" d="M331.603,369.128c3.256,6.712,3.238,13.44-0.037,15.028c-3.275,1.589-8.569-2.562-11.825-9.274
							c-1.375-2.835-2.164-5.669-2.373-8.12c-0.285-3.357,0.518-5.991,2.41-6.909c2.887-1.401,7.338,1.659,10.584,6.996
							C330.796,367.568,331.216,368.329,331.603,369.128z"/>
						<path fill="#4F3117" d="M330.033,387.195c-1.913,0-3.985-0.827-6.046-2.443c-2.551-2.001-4.916-5.088-6.667-8.695
							c-1.478-3.043-2.389-6.181-2.635-9.066c-0.395-4.677,1.032-8.159,3.921-9.559c4.221-2.062,9.886,1.164,14.06,8.017
							c0.479,0.8,0.938,1.633,1.36,2.504l0,0c1.751,3.607,2.709,7.379,2.703,10.618c-0.01,3.924-1.427,6.769-3.988,8.007
							C331.889,386.989,330.981,387.195,330.033,387.195z M321.324,362.206c-0.145,0-0.27,0.024-0.368,0.071
							c-0.472,0.229-1.134,1.586-0.908,4.258c0.189,2.2,0.941,4.747,2.116,7.173c1.38,2.841,3.253,5.321,5.146,6.802
							c1.474,1.161,2.632,1.434,3.077,1.221c0.459-0.219,0.948-1.309,0.952-3.175c0.007-2.402-0.779-5.412-2.159-8.257
							c0,0,0,0-0.003-0.003c-0.348-0.722-0.729-1.41-1.12-2.062C325.461,363.974,322.573,362.206,321.324,362.206z"/>
					</g>
					<g>
						<path fill="#4F3117" d="M330.362,366.849c0.285,3.357-0.518,5.991-2.41,6.909c-2.887,1.401-7.338-1.659-10.584-6.996
							c-0.285-3.357,0.518-5.991,2.41-6.909C322.665,358.453,327.115,361.512,330.362,366.849z"/>
					</g>
				</g>
				<g>
					<path fill="#4F3117" d="M332.652,412.983c-6.665,10.771-16.744,21.031-29.513,29.179c-1.129,0.724-2.26,1.417-3.41,2.08
						c-6.851-32.033-30.204-58.23-61.065-68.786c4.374-4.092,9.299-7.924,14.694-11.365c9.398-5.994,19.239-10.182,28.78-12.573
						C307.083,363.375,325.804,385.915,332.652,412.983z"/>
				</g>
				<g>
					<path fill="#4F3117" d="M283.744,451.831c-12.292,4.536-24.509,6.164-35.176,4.888c-6.804-16.228-18.664-29.899-33.7-38.921
						c1.094-10.448,6.049-21.591,14.139-31.887C257.869,395.812,279.273,421.225,283.744,451.831z"/>
				</g>
				<g>
					<g>
						<path fill="#DDCEB1" d="M275.688,365.688c-15.64-18.43-39.526-27.359-62.579-34.627c-8.872-2.797-18.289-5.483-27.352-3.383
							c-9.063,2.1-17.292,10.779-15.487,19.905c1.332,6.73,7.363,11.397,13.207,14.993c21.251,13.076,40.401,20.124,65.33,21.17"/>
						<path fill="#4F3117" d="M248.811,386.439c-0.04,0-0.078,0-0.115-0.003c-24.071-1.009-43.375-7.258-66.629-21.564
							c-5.895-3.627-12.862-8.813-14.438-16.766c-2.149-10.865,7.325-20.69,17.522-23.052c9.518-2.203,19.044,0.371,28.768,3.442
							c22.286,7.025,47.437,16.139,63.825,35.452c0.962,1.134,0.82,2.831-0.314,3.796c-1.13,0.955-2.834,0.823-3.796-0.314
							c-15.457-18.217-39.764-26.996-61.335-33.799c-8.985-2.838-17.728-5.24-25.934-3.327c-7.585,1.755-14.974,9.07-13.453,16.756
							c1.171,5.908,7.015,10.17,11.975,13.223c22.408,13.787,40.959,19.806,64.031,20.775c1.488,0.061,2.642,1.316,2.578,2.801
							C251.436,385.305,250.245,386.439,248.811,386.439z"/>
					</g>
					<g>
						<path fill="#DDCEB1" d="M246.251,401.403c-19.684-2.422-39.043-7.238-57.752-13.82c-5.427-1.909-11.055-4.143-14.723-8.575
							s-4.508-11.732-0.29-15.644c2.216-2.056,5.328-2.802,8.319-3.241c24.178-3.551,48.192,8.101,67.376,23.241"/>
						<path fill="#4F3117" d="M246.256,404.096c-0.111,0-0.219-0.007-0.331-0.02c-19.047-2.345-38.671-7.038-58.322-13.952
							c-5.8-2.041-11.806-4.451-15.902-9.397c-4.363-5.274-5.621-14.165-0.047-19.337c2.821-2.615,6.515-3.455,9.758-3.931
							c27.371-4.022,52.869,10.716,69.436,23.788c1.167,0.921,1.37,2.615,0.449,3.782c-0.925,1.167-2.622,1.363-3.782,0.449
							c-15.74-12.417-39.865-26.447-65.32-22.688c-2.426,0.354-5.139,0.935-6.876,2.547c-3.121,2.895-2.224,8.624,0.533,11.955
							c3.216,3.887,8.452,5.959,13.54,7.75c19.287,6.785,38.526,11.391,57.188,13.689c1.478,0.182,2.527,1.525,2.345,3
							C248.757,403.097,247.596,404.096,246.256,404.096z"/>
					</g>
				</g>
				<g>
					
						<ellipse transform="matrix(0.9959 -0.091 0.091 0.9959 -24.6037 28.6256)" fill="#4F3117" cx="301.782" cy="284.268" rx="6.18" ry="4.635"/>
				</g>
				<g>
					
						<ellipse transform="matrix(0.9959 -0.091 0.091 0.9959 -26.4074 27.3826)" fill="#4F3117" cx="287.242" cy="303.438" rx="6.953" ry="5.408"/>
				</g>
			</g>
			<g>
				<path fill="#DB4D62" d="M800.647,364.677c-3.11,0,5.015,64.242,16.503,80.33"/>
				<path fill="#4F3117" d="M817.154,447.7c-0.84,0-1.67-0.391-2.193-1.127c-11.33-15.865-19.924-77.207-17.002-82.882
					c0.55-1.07,1.555-1.707,2.689-1.707c1.488,0,2.693,1.205,2.693,2.693c0,0.638-0.223,1.225-0.594,1.687
					c-1.005,6.941,6.111,62.398,16.594,77.079c0.867,1.211,0.587,2.892-0.624,3.755C818.24,447.538,817.694,447.7,817.154,447.7z
					 M800.654,367.368c0,0-0.003,0-0.007,0C800.651,367.368,800.654,367.368,800.654,367.368z M800.661,367.368L800.661,367.368
					L800.661,367.368z"/>
			</g>
			<g>
				<path fill="#DB4D62" d="M436.748,364.677c0,3.11-9.331,55.984-21.772,77.756"/>
				<path fill="#4F3117" d="M414.973,445.125c-0.452,0-0.911-0.115-1.333-0.354c-1.292-0.739-1.741-2.382-1.002-3.674
					c12.123-21.217,21.308-72.966,21.416-76.441c0.044-1.454,1.242-2.642,2.693-2.642c0.013,0,0.027,0,0.04,0
					c1.471,0.024,2.652,1.191,2.652,2.662c0,3.172-9.431,56.878-22.124,79.093C416.819,444.64,415.908,445.125,414.973,445.125z"/>
			</g>
			<g>
				<path fill="#DDCEB1" d="M662.241,1109.163c-1.488,0-2.693-1.205-2.693-2.693c0-19.604-16.655-25.38-16.82-25.438
					c-1.414-0.469-2.176-1.994-1.704-3.405c0.469-1.414,2.008-2.17,3.404-1.704c0.206,0.067,20.505,7.106,20.505,30.546
					C664.933,1107.958,663.729,1109.163,662.241,1109.163z"/>
			</g>
			<g>
				<path fill="#DDCEB1" d="M502.063,1113.829c-1.127,0-2.18-0.712-2.554-1.842c-3.806-11.411,10.085-18.514,10.679-18.811
					c1.326-0.655,2.942-0.128,3.607,1.201c0.668,1.326,0.132,2.946-1.194,3.614c-0.101,0.054-10.311,5.308-7.983,12.295
					c0.472,1.41-0.29,2.936-1.704,3.405C502.634,1113.785,502.347,1113.829,502.063,1113.829z"/>
			</g>
			<g>
				<path fill="#DDCEB1" d="M486.751,125.946l13.892,2.288l-13.544,2.231c-9.674,1.593-17.005,9.594-17.749,19.371l-3.678,48.341
					l-3.678-48.341c-0.744-9.776-8.075-17.777-17.749-19.371l-13.544-2.231l13.892-2.288c9.512-1.567,16.781-9.336,17.711-18.932
					l3.368-34.734l3.368,34.734C469.97,116.61,477.239,124.379,486.751,125.946z"/>
			</g>
		</g>
		<g>
			<path fill="#4F3117" d="M1018.037,794.265l0.789,22.789c0,0,20.948-6.486,18.231-11.92S1018.037,794.265,1018.037,794.265z"/>
		</g>
	</g>
	<g>
		<path fill="#4F3117" d="M605.639,335.651c-7.946,0-15.562-3.165-20.835-8.985c-1.319-1.458-1.208-3.705,0.246-5.024
			c1.451-1.319,3.701-1.208,5.024,0.246c5.449,6.013,14.337,8.179,22.664,5.537c7.447-2.375,13.142-8.284,14.87-15.42
			c0.462-1.906,2.379-3.097,4.292-2.618c1.906,0.459,3.081,2.382,2.618,4.292c-2.305,9.532-9.822,17.397-19.621,20.522
			C611.841,335.176,608.713,335.651,605.639,335.651z"/>
	</g>
</g>
</svg>
